<?xml version="1.0" encoding="UTF-8" standalone="no"?>
<svg width="340" height="550" viewBox="0 0 340 550" fill="none" version="1.1" id="svg47" sodipodi:docname="Royal Moroccan Gendarmerie.svg" inkscape:version="1.3-dev (77bc73e, 2022-05-18)" xmlns:inkscape="http://www.inkscape.org/namespaces/inkscape" xmlns:sodipodi="http://sodipodi.sourceforge.net/DTD/sodipodi-0.dtd" xmlns="http://www.w3.org/2000/svg" xmlns:svg="http://www.w3.org/2000/svg">
  <defs id="defs47"/>
  <sodipodi:namedview id="namedview47" pagecolor="#ffffff" bordercolor="#666666" borderopacity="1.0" inkscape:showpageshadow="2" inkscape:pageopacity="0.0" inkscape:pagecheckerboard="0" inkscape:deskcolor="#d1d1d1" showgrid="false" inkscape:zoom="0.63228316" inkscape:cx="68.798289" inkscape:cy="112.29146" inkscape:window-width="1317" inkscape:window-height="456" inkscape:window-x="0" inkscape:window-y="25" inkscape:window-maximized="0" inkscape:current-layer="svg47"/>
  <path d="M128.5 128.5L180 126L209 130L219 142L107.5 146L128.5 128.5Z" fill="black" stroke="black" id="path1"/>
  <path d="M238.001 138H91.5004C84.5002 147 78.9999 160 72.9999 175L44.9999 255L15.9999 328C11.5 339.5 12 343 13.9999 349.5L80.4998 530.5L80.5678 530.687C82.575 536.212 85.9488 545.5 99.0004 545.5H239.501C243.167 542.333 247.5 531 251 519.5L316 350.5C318 344 318.999 337 314 325.5L289 261L257.501 175C253.501 162.667 244.001 138 238.001 138Z" fill="#E2BF62" stroke="black" id="path2"/>
  <path d="M222.035 165H109.535L70.035 263.5C58.8684 288.667 37.0352 337.5 44.5351 351L98.035 494.5C100.702 502.5 106.835 518.5 110.035 518.5H218.035C220.035 518.5 221 518.5 224.035 512.5L285.535 349.5C287.035 348.167 289.435 343.3 287.035 334.5L222.035 165Z" fill="black" id="path3"/>
  <path d="M101 185L233.5 491.5M234.806 196.759L94.6597 503.348M143.5 164.5L192.864 526M193 165L140.182 526M80.5 234.5L252.708 442.768M252.708 242.589L76.2463 449.089M39 341.098H296M66.5 269L266.006 405.893M63.4593 411.688L266 277.5M52.2067 299.5L277 374M52.2067 376.393L277.5 308.5" stroke="#E2BF62" stroke-width="3" id="path4"/>
  <path d="M147 312.5L166.5 279L183 316L222.5 318.5L191.5 340.5L197.5 380.5L162 362L127.5 380.5L139 348L110 312.5H147Z" fill="#BA2B25" id="path5"/>
  <path d="M146.791 310.547L83 310.603L155.617 362.39L166.507 354.622L122.489 323.212L142.607 323.156L146.791 310.547Z" fill="#006233" stroke="#E2BF62" stroke-width="3" id="path6"/>
  <path d="M186.253 310.567L166.486 251L138.777 334.832L149.665 342.603L166.479 291.782L172.75 310.555L186.253 310.567Z" fill="#006233" stroke="#E2BF62" stroke-width="3" id="path7"/>
  <path d="M198.424 347.432L249.998 310.562L160.257 310.586L156.096 323.156L210.505 323.157L194.263 334.816L198.424 347.432Z" fill="#006233" stroke="#E2BF62" stroke-width="3" id="path8"/>
  <path d="M166.488 370.193L218.13 406.973L190.375 323.156L176.916 323.154L193.728 373.976L177.419 362.408L166.488 370.193Z" fill="#006233" stroke="#E2BF62" stroke-width="3" id="path9"/>
  <path d="M134.578 347.399L114.92 407L187.508 355.175L183.351 342.603L139.333 374.011L145.495 355.203L134.578 347.399Z" fill="#006233" stroke="#E2BF62" stroke-width="3" id="path10"/>
  <path d="M76.9837 201C78.2422 197.5 78.7608 191 69.2422 187L63.2422 205C66.2168 206.333 74.2074 206.6 76.9837 201Z" fill="#A08847" id="path11"/>
  <path d="M70.5 225C72.6089 218.5 68.571 212.4 60.2422 212L54 230C57.5 232 68.0666 232.5 70.5 225Z" fill="#A08847" id="path12"/>
  <path d="M61 249.5C62.4873 243.5 58 238 51.5 237.5L45 255.5C48.6356 255.833 58.7691 258.5 61 249.5Z" fill="#A08847" id="path13"/>
  <path d="M103.001 545.5C105.963 533.5 120.132 533.5 123.001 545.5H103.001Z" fill="#A08847" id="path14"/>
  <path d="M208.501 545.5C209.501 533 225.501 533 227.001 545.5H208.501Z" fill="#A08847" id="path15"/>
  <path d="m 76.500797,519.99999 c 12.5,-7 21.9999,11.5 7.4999,17.5 -2.5,-4 -5.4999,-11.5 -7.4999,-17.5 z" fill="#a08847" id="path16"/>
  <path d="M250.501 520.5C239.5 511.5 229.001 530.5 244.501 537.5C246.668 532 250.901 520.9 250.501 520.5Z" fill="#A08847" id="path17"/>
  <path d="M260.001 182C244.501 185 250.001 206.5 266.001 199L260.001 182Z" fill="#A08847" id="path18"/>
  <path d="M269.001 207C253.001 210.5 258.501 232.5 275.501 224.5L269.001 207Z" fill="#A08847" id="path19"/>
  <path d="M278.001 232C262.001 236.5 267.001 255 284.501 249L278.001 232Z" fill="#A08847" id="path20"/>
  <path d="M76.9837 201C78.2422 197.5 78.7608 191 69.2422 187L63.2422 205C66.2168 206.333 74.2074 206.6 76.9837 201Z" stroke="black" stroke-linecap="round" id="path21"/>
  <path d="M70.5 225C72.6089 218.5 68.571 212.4 60.2422 212L54 230C57.5 232 68.0666 232.5 70.5 225Z" stroke="black" stroke-linecap="round" id="path22"/>
  <path d="M61 249.5C62.4873 243.5 58 238 51.5 237.5L45 255.5C48.6356 255.833 58.7691 258.5 61 249.5Z" stroke="black" stroke-linecap="round" id="path23"/>
  <path d="M103.001 545.5C105.963 533.5 120.132 533.5 123.001 545.5H103.001Z" stroke="black" stroke-linecap="round" id="path24"/>
  <path d="M208.501 545.5C209.501 533 225.501 533 227.001 545.5H208.501Z" stroke="black" stroke-linecap="round" id="path25"/>
  <path d="m 76.500797,519.99999 c 12.5,-7 21.9999,11.5 7.4999,17.5 -2.5,-4 -5.4999,-11.5 -7.4999,-17.5 z" stroke="#000000" stroke-linecap="round" id="path26"/>
  <path d="M250.501 520.5C239.5 511.5 229.001 530.5 244.501 537.5C246.668 532 250.901 520.9 250.501 520.5Z" stroke="black" stroke-linecap="round" id="path27"/>
  <path d="M260.001 182C244.501 185 250.001 206.5 266.001 199L260.001 182Z" stroke="black" stroke-linecap="round" id="path28"/>
  <path d="M269.001 207C253.001 210.5 258.501 232.5 275.501 224.5L269.001 207Z" stroke="black" stroke-linecap="round" id="path29"/>
  <path d="M278.001 232C262.001 236.5 267.001 255 284.501 249L278.001 232Z" stroke="black" stroke-linecap="round" id="path30"/>
  <path d="M109.5 516.5L94.5003 544.5M220 517.5L240 545M12.8867 339.5H43.0003M317 339.5H288" stroke="black" stroke-linecap="round" id="path31"/>
  <path d="M140.669 157.067C147.89 155.075 162.667 147.074 164 131C136.781 138.06 120.116 146.749 76.2316 145.119C45.6779 143.985 34.5689 147.655 20.1267 162.497C12.9052 169.919 -0.98281 193.343 1.23761 227.664C1.23861 243.412 0.904311 280.449 24.0132 311.294C29.7534 324.147 33.4568 342.249 26.2346 361.256C19.5685 380.625 9.80483 420.992 11.7915 437.826C13.458 451.946 25.6791 481.271 34.0116 496.476C36.4188 502.088 41.122 514.397 40.6776 518.742L42.3442 515.483L46.7882 506.251C47.5288 505.165 48.4547 504.079 49.5657 506.251L57.8982 522C59.1944 521.276 61.5645 517.547 60.6757 508.424C59.9351 500.64 50.6783 478.556 45.1233 462.807C39.7598 447.601 32.234 412.737 38.4556 403.614C43.27 394.382 53.0098 373.854 53.4542 365.6C57.7131 344.783 59.8982 297.392 34.5678 274.367C32.9013 269.117 30.0127 255.794 31.7903 244.499C32.9013 232.913 39.5683 208.657 45.6779 196.71C48.6406 187.84 60.121 172.272 88.4516 170.1C96.2287 169.504 115.338 170.1 140.669 157.067Z" fill="#E2BF62" stroke="black" id="path32"/>
  <path d="M1 230C3.8125 238.172 23.5 265.956 34.75 274.128M46 389.08C29.8 404.77 19.375 439.564 16.1875 455" stroke="black" id="path33"/>
  <path d="M194.19 157.067C186.703 155.075 171.382 147.074 170 131C198.221 138.06 215.499 146.749 260.999 145.119C292.678 143.985 304.195 147.655 319.169 162.497C326.657 169.919 341.056 193.343 338.754 227.664C338.753 243.412 339.099 280.449 315.14 311.294C309.188 324.147 305.348 342.249 312.837 361.256C319.748 380.625 329.871 420.992 327.811 437.826C326.083 451.946 313.413 481.271 304.773 496.476C302.277 502.088 297.401 514.397 297.862 518.742L296.134 515.483L291.526 506.251C290.758 505.165 289.799 504.079 288.647 506.251L280.007 522C278.663 521.276 276.206 517.547 277.128 508.424C277.896 500.64 287.493 478.556 293.253 462.807C298.813 447.601 306.616 412.737 300.166 403.614C295.174 394.382 285.076 373.854 284.615 365.6C280.199 344.783 277.934 297.392 304.197 274.367C305.924 269.117 308.919 255.794 307.076 244.499C305.924 232.913 299.012 208.657 292.678 196.71C289.606 187.84 277.703 172.272 248.329 170.1C240.266 169.504 220.453 170.1 194.19 157.067Z" fill="#E2BF62" stroke="black" id="path34"/>
  <path d="M339 230C336.188 238.172 316.5 265.956 305.25 274.128M294 389.08C310.2 404.77 320.625 439.564 323.812 455" stroke="black" id="path35"/>
  <path fill-rule="evenodd" clip-rule="evenodd" d="M268 418.5C269.5 420 276.5 422.5 281.5 423.5C280.5 421 280.5 421.5 279.5 419.5C276.5 418.5 271 416 267 415C267 415.5 267.5 417.5 268 418.5ZM261 424.5C261 424.786 264.493 425.757 267.503 426.659C271.188 427.76 272.977 428.928 272.977 430.231C272.977 432.407 267.568 432.082 262 430.5C260.492 430.071 259.577 429.97 259.158 430.086C259.158 430.85 259.319 431.5 260 432C260.932 432.684 262.311 432.816 264.5 433.5C270.49 435.372 271.44 436.044 265.391 451.78C259.752 466.447 258.959 467.326 252.581 465.958L248 464.976L248.753 469.175C249.957 475.887 256.557 478.776 256.557 472.592C256.557 470.86 257.433 470.072 259.615 469.839C262.225 469.56 263.198 468.089 266.256 459.791C273.154 441.079 274 437.5 275.805 436.259C279.096 430.231 276.5 426.5 265.588 423.981C263 423.384 262.97 423.499 261 424.5ZM254.505 470.364C254.505 473.031 251.822 472.863 251.311 470.165C250.998 468.509 251.428 467.892 252.68 468.204C253.684 468.455 254.505 469.427 254.505 470.364Z" fill="black" id="path36"/>
  <path fill-rule="evenodd" clip-rule="evenodd" d="M50.3142 413.237C47.5582 415.252 47.1842 421.863 49.6222 425.452C50.7432 427.102 52.1072 429.127 52.6532 429.952C53.1982 430.777 54.1062 433.304 54.6692 435.568C55.8182 440.181 59.9802 444.952 62.8572 444.952C65.5402 444.952 66.0952 442.637 64.2612 439.092C62.2272 435.157 62.2422 435.072 65.1892 433.952C69.6182 432.268 67.9582 431.069 62.0422 431.679L56.3942 432.262L57.0612 429.607C57.6712 427.176 57.4742 426.952 54.7272 426.952C51.3602 426.952 49.9532 424.022 51.1092 419.417C51.7422 416.891 55.9862 414.399 57.7732 415.504C59.1082 416.329 58.8942 414.557 57.4892 413.152C55.9192 411.582 52.5222 411.623 50.3142 413.237ZM55.3282 420.646C54.2022 421.772 54.6432 422.952 56.1892 422.952C57.0142 422.952 57.6892 422.529 57.6892 422.011C57.6892 420.75 56.1272 419.847 55.3282 420.646ZM61.8832 438.479C62.7702 440.425 62.7492 441.288 61.7952 442.229C60.3302 443.673 57.6892 440.799 57.6892 437.761C57.6892 435.078 60.5582 435.57 61.8832 438.479ZM53.7212 445.801C53.6752 449.193 56.6082 454.853 59.3382 456.642C60.6312 457.489 61.6892 458.828 61.6892 459.617C61.6892 466.016 67.4492 468.679 73.9822 465.3C76.8782 463.803 75.7902 463.734 73.9822 463.087C72.8862 462.695 72.1472 462.611 70.8742 463.087C67.3842 464.391 66.7842 464.18 66.0862 461.397C65.6182 459.532 66.0412 458.206 67.6522 456.491C71.5792 452.311 66.9172 447.626 62.6622 451.476C60.5642 453.375 58.0442 452.503 57.3232 449.63C57.0222 448.432 56.0962 446.552 55.2642 445.452C53.7762 443.483 53.7522 443.489 53.7212 445.801ZM70.4372 471.348C63.5 474.5 62.8572 474.583 67.2982 475.743C69.4951 476.317 78.6892 472.279 78.6892 471.012C76 470 75.9732 469.334 70.4372 471.348Z" fill="black" id="path37"/>
  <path d="M59.3666 160.204C57.1591 156.572 53.9664 152 53.5096 152C52.9006 152 53.0484 153.556 53.429 155.834C53.6917 157.405 54.5709 160.019 57.159 164.02C59.2144 167.221 61.2697 169.929 61.7265 169.99C62.1832 170.113 62.7161 169.436 62.9444 168.452C63.2489 167.221 62.3355 165.066 59.3666 160.204Z" fill="black" id="path38"/>
  <path d="M56.3217 168.944C56.0172 166.297 55.256 164.759 52.82 161.866L48.481 155.095C47.4914 153.926 47.1827 153.038 46.9585 155.711C46.8713 156.751 46.8063 158.542 47.1107 159.711C47.4914 160.881 48.481 162.727 49.3945 163.712C50.2318 164.697 51.602 166.605 52.3633 167.898C53.3275 169.457 53.5559 170.442 53.0484 170.852C52.6678 171.221 50.3841 171.468 48.1003 171.468C44.9793 171.468 43.6852 171.714 43.0001 172.514C42.4672 173.068 42.0105 174.053 42.0105 174.607C42.0105 175.222 41.4776 177.253 40.8686 179.1C40.0313 181.562 39.3461 182.485 38.4327 182.485C37.6714 182.485 36.149 181.316 35.0071 179.838C33.8652 178.423 30.5919 174.422 29.7546 173.56C28.4605 172.268 28.156 172.145 27.4709 172.945C27.0903 173.437 26.7096 174.176 26.7096 174.484C26.7096 174.791 29.8307 179.161 31.7338 181.562C33.5608 183.901 35.1593 186.055 35.1593 186.301C35.1593 186.609 34.8549 186.794 34.3981 186.794C34.0175 186.794 31.886 184.639 29.7546 181.993C27.2425 178.915 24.2737 175.899 24.502 175.099C24.7304 174.422 26.0013 172.35 27.4634 169.773C30.2002 164.949 30.586 165.257 29.1456 164.143C28.2019 163.414 28.2019 163.414 27.547 163.097C27.1662 162.913 25.72 165.128 24.502 167.221C23.2079 169.375 21.99 172.206 21.7616 173.56C21.381 175.284 21.6855 176.761 22.6751 178.484C23.4363 179.838 25.3394 182.731 27.0141 184.947L29.9829 188.948C27.4709 191.533 26.1768 192.087 24.2737 192.149C21.8377 192.333 21.381 192.579 20.6959 194.303C20.2391 195.472 20.163 197.565 20.4675 199.104C20.772 200.643 21.381 202.858 21.9138 204.028C22.4467 205.259 23.4363 206.244 24.2737 206.367C25.0349 206.49 25.8723 206.244 26.1768 205.751C26.6335 205.136 26.938 205.136 27.6992 205.69C28.5366 206.305 28.3844 206.859 27.0903 208.767C26.1768 210.06 24.5782 211.66 23.4363 212.337C21.4571 213.507 21.3049 213.507 19.0973 212.46C17.8793 211.906 16.6613 211.414 16.3568 211.414C15.9762 211.414 15.9001 212.152 16.1285 213.076C16.3568 213.937 17.5748 215.353 18.7928 216.215C20.3914 217.2 21.6855 217.569 22.9796 217.384C24.0453 217.2 25.9203 217.144 26.7858 216.584C29.0689 215.107 30.0069 213.69 30.4397 212.46C30.5913 212.029 31.3532 210.183 31.3532 208.029C31.3532 205.997 30.8964 203.351 30.3636 202.181C29.7546 201.012 28.765 199.842 28.2321 199.658C27.6231 199.412 26.4813 199.596 25.6439 200.089C24.4259 200.766 24.0453 200.766 23.6647 200.212C23.3602 199.781 23.2841 198.919 23.4363 198.304C23.6393 197.606 24.4513 197.257 25.8723 197.257C27.0141 197.319 28.5366 196.826 29.2217 196.211C29.9068 195.595 30.8203 194.364 31.277 193.38C31.9622 192.087 32.495 191.779 33.8652 192.087C35.2355 192.333 36.149 191.841 38.5849 189.502C40.2596 187.84 42.4672 185.809 43.5329 184.886C44.5987 184.024 45.8928 182.67 46.4256 181.931C46.8824 181.254 47.3391 180.208 47.3391 179.715C47.3391 179.223 46.8062 178.3 46.1211 177.684C45.0554 176.822 44.9787 175.838 45.8161 175.715C47.2624 175.591 47.7191 175.961 48.0998 176.33C48.5565 176.699 49.0138 177.561 49.6228 177.561C50.2318 177.623 52.1349 176.392 53.7335 174.976C56.6262 172.452 56.7023 172.206 56.3217 168.944Z" fill="black" id="path39"/>
  <path d="M26.6335 220.893C26.938 221.077 27.547 221.016 28.0037 220.77C28.2069 220.66 28.5156 220.392 28.8693 220.031C28.6821 219.621 28.1554 218.8 27.5464 218.8C27.2927 218.8 26.633 218.948 26.0245 219.539C26.0245 220.154 26.2529 220.77 26.6335 220.893Z" fill="black" id="path40"/>
  <path d="M29.5138 218.856C29.7707 219.02 30.1712 219.074 30.5565 218.856C30.7279 218.759 31 218.464 31 217.976C30.842 217.612 30.7977 217.001 30.2839 217.001C30.0698 217.001 29.5134 216.965 29 217.489C29 218.034 29.1927 218.747 29.5138 218.856Z" fill="black" id="path41"/>
  <path fill-rule="evenodd" clip-rule="evenodd" d="M289.094 160C289.596 159.929 291.03 160.197 291.03 161.143C291.03 161.786 288 165.058 287 166.494C286 167.929 288.213 169.494 288.213 169.494C290.213 170.994 290.528 171.43 292.823 171.43C294.544 171.43 295.741 170.786 296.53 170C297.176 169.357 298.775 167.829 300.5 166.072C301.934 164.613 303.722 162.429 304.87 161.929C305.945 161.5 307.021 161.286 307.379 161.572C307.666 161.857 307 162.494 303.651 166.929C301.481 169.803 298.56 172.502 297.556 173.43C296.552 174.288 294.759 175.216 293.54 175.502C292.106 175.788 290.6 175.502 288.951 174.573C287.588 173.859 285.717 171.994 285 170.994C283.925 169.637 283.788 169.001 284.146 166.929C284.362 165.501 285.437 163.286 286.441 162.143C287.445 161 288.664 160 289.094 160ZM296.53 161.791C296.817 161.719 297.462 162.219 297.964 162.862C298.395 163.434 298.681 164.22 298.466 164.648C298.251 165.077 297.749 165.363 297.391 165.363C297.032 165.363 295.813 166.006 294.738 166.791C293.59 167.649 292.287 167.215 291.857 167.144C291.355 167.144 290.925 166.644 290.925 166.072C290.925 165.501 291.426 165.001 292 165.001C292.574 165.001 293.734 165.077 294.594 163.934C295.383 162.791 296.243 161.791 296.53 161.791ZM288.521 177.86C289.094 177.86 290.672 178.502 291.962 179.217C293.182 179.931 295.391 180.563 296.623 181.003C298 181.494 300.52 182.97 302 180.494C302.763 179.217 304.153 179.288 304.87 179.288C305.587 179.288 306 179.637 306 180.494C306 181.28 304.87 183.208 303.651 183.994C302.503 184.78 301.145 184.494 300.5 184.494C299.783 184.494 298.362 184.423 297 183.994C295.638 183.494 293.078 182.565 291.5 181.994C289.922 181.494 287.93 180.565 287.5 179.994C286.998 179.351 286.871 178.931 287.086 178.574C287.373 178.217 288.019 177.86 288.521 177.86ZM302.647 187.146C302.934 187.146 303.651 188.289 304.153 189.647C304.583 191.004 305.285 192.994 305.5 192.994C305.715 192.994 306.5 192.494 307.5 191.994C308.371 191.558 309 190.994 310.368 190.422C310.624 190.316 311.271 190.345 312.399 191.076C313.384 191.713 313.539 191.341 310 193.994C307.12 196.153 306.421 195.397 307.093 198.577C307.379 199.934 307.953 201.505 308.455 202.006C308.885 202.506 310.033 202.934 310.965 202.863C311.825 202.863 314.385 201.802 317 200.494C322 197.994 321.5 197.994 322.5 197.994C323.292 197.994 324.876 198.291 325.45 198.862C326.382 199.862 326 199.494 321.506 202.148C318.911 203.681 315.339 204.935 313.977 205.506C312.112 206.363 310.821 206.435 309.029 206.006C307.666 205.649 306.017 204.577 305.228 203.577C304.511 202.577 303.722 200.505 303.507 198.934C303.292 197.362 302.647 195.005 302.073 193.79C301.5 192.504 300.998 190.718 300.926 189.79C300.854 188.861 301.069 187.861 301.428 187.647C301.786 187.361 302.288 187.146 302.647 187.146ZM326.5 203.994C327.485 203.994 328.5 203.994 329.5 204.994C329.778 205.272 329.842 205.289 329 205.994C328.561 206.362 326.067 207.84 325 208.494C323.844 209.202 322.5 209.994 321.5 210.494C320.292 211.098 320.287 211.007 317.92 212.221C314.192 214.15 313.331 214.293 311.682 213.65C310.535 213.221 309.818 212.507 310.033 212.15C310.248 211.793 313.044 210.149 316.343 208.578C319.57 207.006 325 203.994 326.5 203.994Z" fill="black" id="path42"/>
  <path d="M217.724 39.4413C218.351 38.4491 218.724 37.2877 218.724 36.0299C218.724 32.4154 215.738 29.5 212.069 29.5C208.411 29.5 205.414 32.4149 205.414 36.0299C205.414 36.0381 205.414 36.0465 205.415 36.0549L201.689 36.2309C201.222 33.076 198.502 30.6062 195.154 30.6062C191.487 30.6062 188.5 33.5101 188.5 37.1353C188.5 40.7497 191.486 43.6651 195.154 43.6651C197.89 43.6651 200.214 42.0303 201.235 39.7179C203.141 39.5273 205.074 39.4817 206.456 39.4931C207.634 41.3345 209.7 42.5699 212.069 42.5699C213.09 42.5699 214.034 42.3147 214.887 41.9217C216.546 42.7209 218.089 43.6642 219.538 44.6762C219.481 45.0269 219.447 45.3884 219.447 45.7596C219.447 49.8849 222.855 53.2039 227.033 53.2039C227.463 53.2039 227.888 53.1683 228.306 53.0967C229.311 54.3739 230.164 55.5834 230.859 56.6514C229.665 58.04 228.928 59.8317 228.928 61.7957C228.928 65.8063 231.928 69.0747 235.82 69.6764C235.967 70.6157 236.085 71.5754 236.171 72.5547C233.293 73.9201 231.3 76.7997 231.3 80.1608C231.3 83.2302 232.984 85.884 235.475 87.357C235.275 88.5304 235.052 89.7242 234.794 90.9386C234.724 90.9352 234.654 90.9329 234.586 90.9329C229.086 90.9329 224.604 95.3047 224.604 100.716C224.604 106.128 229.086 110.5 234.586 110.5C240.086 110.5 244.555 106.127 244.555 100.716C244.555 96.5737 241.933 93.0434 238.234 91.6212C238.46 90.5675 238.65 89.5392 238.829 88.5239C239.174 88.5681 239.528 88.5939 239.894 88.5939C244.636 88.5939 248.5 84.8281 248.5 80.1608C248.5 75.4935 244.636 71.7277 239.894 71.7277C239.807 71.7277 239.717 71.7327 239.629 71.74C239.552 70.9839 239.459 70.2332 239.345 69.496C242.754 68.5373 245.271 65.465 245.271 61.7957C245.271 57.3633 241.602 53.7775 237.099 53.7775C235.873 53.7775 234.731 54.0693 233.702 54.5461C233.117 53.6475 232.438 52.6733 231.666 51.6448C233.458 50.2861 234.608 48.1612 234.608 45.7596C234.608 41.6458 231.211 38.3264 227.033 38.3264C224.529 38.3264 222.314 39.5209 220.935 41.3596C219.916 40.6815 218.852 40.0367 217.724 39.4413Z" fill="#E2BF62" stroke="black" id="path44"/>
  <path d="m 111.82071,39.783908 c -0.627,-0.9922 -0.99999,-2.1536 -0.99999,-3.4114 0,-3.6145 2.986,-6.529899 6.655,-6.529899 3.65799,0 6.655,2.914899 6.655,6.529899 0,0.0082 0,0.01659 -9.4e-4,0.025 l 3.72599,0.176 c 0.46701,-3.1549 3.18702,-5.6247 6.53501,-5.6247 3.667,0 6.65399,2.9039 6.65399,6.5291 0,3.6144 -2.986,6.5298 -6.65399,6.5298 -2.73599,0 -5.05999,-1.6348 -6.081,-3.9472 -1.906,-0.1906 -3.83901,-0.236199 -5.22099,-0.2248 -1.17802,1.8414 -3.24401,3.076801 -5.61301,3.076801 -1.021,0 -1.96501,-0.255201 -2.81799,-0.648201 -1.659,0.799199 -3.20202,1.7425 -4.65101,2.7545 0.057,0.3507 0.091,0.712199 0.091,1.083401 0,4.125299 -3.40801,7.444299 -7.58599,7.444299 -0.43002,0 -0.85501,-0.03559 -1.273,-0.1072 -1.00501,1.2772 -1.858007,2.486701 -2.553013,3.5547 1.193997,1.3886 1.931003,3.180299 1.931003,5.144299 0,4.0106 -2.999997,7.279002 -6.891997,7.880701 -0.146926,0.9393 -0.26501,1.899 -0.351007,2.8783 2.877998,1.3654 4.871004,4.245 4.871004,7.6061 0,3.0694 -1.683987,5.7232 -4.175002,7.196201 0.200001,1.173398 0.423005,2.367199 0.680996,3.581599 0.07,-0.0034 0.139964,-0.0057 0.208007,-0.0057 5.499999,0 9.981999,4.371801 9.981999,9.783102 0,5.412 -4.482,9.784 -9.981999,9.784 -5.499996,0 -9.969003,-4.373 -9.969003,-9.784 0,-4.142302 2.621998,-7.672602 6.320995,-9.094801 -0.225999,-1.053701 -0.415986,-2.082001 -0.594999,-3.097301 -0.344994,0.04419 -0.698999,0.06999 -1.064991,0.06999 -4.742003,0 -8.606015,-3.7658 -8.606015,-8.4331 0,-4.6673 3.864012,-8.4331 8.606015,-8.4331 0.08697,0 0.176983,0.005 0.26499,0.0123 0.07692,-0.756101 0.170013,-1.506799 0.284009,-2.244 -3.409005,-0.9587 -5.925989,-4.030999 -5.925989,-7.700301 0,-4.432399 3.668987,-8.018199 8.171997,-8.018199 1.225993,0 2.36799,0.291801 3.396996,0.768599 0.584994,-0.898599 1.26399,-1.872799 2.036,-2.901299 -1.792007,-1.358699 -2.942009,-3.4836 -2.942009,-5.885199 0,-4.113801 3.397006,-7.433201 7.575013,-7.433201 2.50399,0 4.71899,1.194499 6.09799,3.0332 1.019,-0.6781 2.083,-1.322901 3.21099,-1.918301 z" fill="#e2bf62" stroke="#000000" id="path44-7" style="stroke-width:1"/>
  <path d="M217.208 108.656C221.713 101.295 224.129 94.986 225.422 90.4742C226.085 88.1587 226.453 86.317 226.654 85.0501C226.755 84.4166 226.814 83.9268 226.849 83.5933C226.866 83.4266 226.877 83.2989 226.883 83.2119C226.884 83.1974 226.885 83.184 226.886 83.1717C226.888 83.1473 226.889 83.1274 226.89 83.112L226.892 83.0854L226.892 83.0779L226.892 83.0756L226.893 83.0749C226.893 83.0746 226.893 83.0743 226.393 83.049L226.893 83.0743L226.893 83.071C227.381 71.9699 224.017 64.155 220.515 59.1111C218.766 56.5919 216.985 54.7674 215.638 53.5704C214.964 52.9719 214.399 52.5299 213.999 52.236C213.799 52.0891 213.641 51.9792 213.531 51.9052C213.476 51.8683 213.434 51.8403 213.404 51.8211L213.38 51.8054C205.093 45.375 196.549 44.3705 190.085 44.9759C186.853 45.2786 184.139 45.9835 182.231 46.6132C181.277 46.9282 180.524 47.2248 180.007 47.4436C179.805 47.5291 179.639 47.6028 179.511 47.6611C175.525 44.141 171.719 42.3873 168.231 41.768C164.672 41.1359 161.48 41.6915 158.814 42.7077C156.151 43.7226 154.009 45.1981 152.535 46.416C151.797 47.0257 151.224 47.573 150.834 47.9695C150.687 48.1194 150.565 48.2479 150.471 48.3502C148.259 47.4898 145.968 46.8055 143.635 46.3454C135.757 44.7678 127.449 45.8354 120.644 50.2823C112.749 55.4339 107.086 64.4383 105.247 73.4825L105.247 73.4832C103.56 81.8455 104.882 90.5477 107.605 98.4903L107.605 98.4906C107.728 98.8488 108.798 101.687 109.927 104.402C110.492 105.76 111.076 107.099 111.567 108.086C111.789 108.531 111.998 108.919 112.183 109.208C111.893 109.333 111.527 109.501 111.108 109.716C110.05 110.258 108.65 111.098 107.287 112.291C104.553 114.684 101.953 118.517 102.6 124.179L102.6 124.181L103.096 124.122C102.6 124.181 102.6 124.182 102.6 124.182L102.6 124.183L102.601 124.186L102.602 124.196L102.606 124.23C102.61 124.259 102.616 124.301 102.625 124.355C102.642 124.463 102.668 124.618 102.707 124.813C102.784 125.203 102.912 125.754 103.112 126.406C103.513 127.708 104.209 129.425 105.392 131.069C106.578 132.715 108.256 134.292 110.614 135.294C112.973 136.296 115.978 136.709 119.794 136.083C122.69 135.637 125.629 135.385 128.568 135.132C129.519 135.05 130.471 134.968 131.42 134.88C140.164 134.065 148.915 133.41 157.686 133.039C162.354 132.849 167.002 132.838 171.652 132.944C177.504 133.082 183.346 133.399 189.203 133.812L189.205 133.812C190.591 133.903 191.972 133.985 193.35 134.067C197.916 134.339 202.448 134.61 206.985 135.185L206.987 135.186C207.989 135.309 209.033 135.518 210.122 135.735C210.795 135.87 211.485 136.007 212.193 136.131C214.005 136.446 215.879 136.653 217.61 136.357L217.611 136.357C222.903 135.439 225.857 132.538 227.477 129.86C228.284 128.526 228.758 127.252 229.031 126.31C229.168 125.839 229.255 125.449 229.307 125.175C229.334 125.038 229.352 124.929 229.363 124.854C229.366 124.838 229.368 124.824 229.37 124.811C229.372 124.793 229.374 124.778 229.376 124.766L229.379 124.742L229.38 124.734L229.38 124.732L229.38 124.731C229.38 124.731 229.38 124.731 229.099 124.698L229.38 124.731C230.17 118.021 226.925 113.935 223.509 111.556C221.809 110.372 220.065 109.607 218.75 109.138C218.125 108.916 217.594 108.759 217.208 108.656ZM124.025 127.992L117.565 129.108L118.554 123.671L118.586 123.497L118.501 123.342L115.933 118.64L122.397 117.634L121.17 123.199L121.126 123.4L121.236 123.573L124.025 127.992ZM161.009 60.5466C161.436 60.9614 161.908 61.2981 162.408 61.5596C160.069 62.5738 158.432 64.8753 158.432 67.5679C158.432 70.0728 159.851 72.2207 161.929 73.3223C159.456 74.4822 157.734 76.9552 157.734 79.8505C157.734 82.5284 159.213 84.837 161.39 86.0876C157.654 87.3671 154.964 90.8681 154.964 94.9924C154.964 98.6169 157.034 101.752 160.065 103.334L152.33 103.284C150.273 94.4074 149.025 86.1708 150.376 77.151L150.376 77.1507C151.351 70.6177 152.97 63.6117 156.98 58.2867C157.656 57.3928 158.429 56.5079 159.303 55.7884C159.126 57.4848 159.687 59.2424 161.006 60.5439L161.009 60.5466ZM176.544 103.106C176.503 103.23 176.468 103.337 176.438 103.427L168.912 103.385C171.995 101.821 174.107 98.6555 174.107 94.9924C174.107 91.1073 171.723 87.7822 168.328 86.334C170.763 85.1606 172.454 82.7158 172.454 79.8505C172.454 76.9543 170.724 74.4819 168.248 73.3223C170.328 72.221 171.756 70.0738 171.756 67.5679C171.756 64.9389 170.19 62.6741 167.933 61.6265C168.478 61.3553 168.991 60.9958 169.449 60.5439C171.055 58.9596 171.556 56.6998 170.953 54.694C175.941 59.2081 178.974 65.9591 180.185 76.6987C180.868 82.76 179.909 89.5193 178.769 94.7861C178.2 97.4148 177.588 99.6619 177.118 101.251C176.883 102.046 176.684 102.675 176.544 103.106ZM186.793 58.2715C190.018 56.6617 193.667 56.5163 196.595 56.8061C198.124 56.9575 199.443 57.2263 200.377 57.4571C200.845 57.5724 201.215 57.678 201.467 57.7543C201.594 57.7925 201.69 57.8233 201.755 57.8443C201.771 57.8497 201.785 57.8544 201.797 57.8584C201.808 57.8618 201.816 57.8646 201.823 57.867C211.526 62.5274 215.494 72.2397 214.675 84.7942C214.265 91.0213 211.642 96.5324 209.104 100.502C207.836 102.484 206.595 104.073 205.671 105.166C205.209 105.713 204.828 106.134 204.562 106.419C204.467 106.52 204.387 106.604 204.324 106.67L187.138 104.204C191.704 88.0543 191.595 76.5208 190.314 68.984C189.667 65.1737 188.72 62.3889 187.93 60.5493C187.535 59.6297 187.179 58.9467 186.92 58.4902C186.875 58.4104 186.832 58.3375 186.793 58.2715ZM214.484 121.519L214.37 121.685L214.403 121.884L215.392 127.876L209.261 126.756L211.607 122.025L211.686 121.866L211.647 121.693L210.428 116.288L217.234 117.519L214.484 121.519ZM116.338 80.3714C117.09 71.816 120.397 65.8543 125.298 62.2546C130.03 58.7793 136.314 57.4565 143.382 58.208C143.369 58.2283 143.356 58.2491 143.344 58.2703C143.039 58.7685 142.618 59.5113 142.143 60.5011C141.195 62.4807 140.034 65.4477 139.168 69.4205C137.455 77.2765 136.896 89.0473 141.382 104.871L125.837 106.815C125.761 106.745 125.66 106.65 125.537 106.53C125.238 106.239 124.809 105.803 124.297 105.223C123.275 104.065 121.923 102.339 120.618 100.079C118.009 95.5608 115.586 88.9097 116.338 80.3714ZM137.309 123.172L131.33 120.509L137.351 116.909L144.518 119.914L137.309 123.172ZM164.787 122.464L158.845 118.726L165.422 115.547L171.953 119.167L164.787 122.464ZM193.578 123.301L186.472 119.622L193.547 115.968L200.52 120.115L193.578 123.301Z" fill="#E2BF62" stroke="black" id="path45"/>
  <path d="M185.296 19.4308L186.525 18.5279H185H170.046L165.414 3.84952L164.942 2.35352L164.461 3.84681L159.736 18.5279H144H142.422L143.712 19.4367L156.537 28.4697L151.907 42.8467L151.433 44.3174L152.679 43.4031L164.953 34.3922L176.725 42.6734L177.935 43.5247L177.49 42.1139L173.145 28.3598L185.296 19.4308ZM175.094 22.1942L171.968 24.6185L171.196 22.1745L175.094 22.1942ZM163.668 18.5279L165.135 13.9823L166.601 18.5279H163.668ZM157.753 24.676L154.051 22.0769L158.583 22.1043L157.753 24.676ZM161.852 32.3085L158.431 34.7651L159.728 30.7371L161.852 32.3085ZM165.192 29.8902L160.96 26.9245L162.513 22.1211L167.775 22.1485L169.252 26.7354L165.192 29.8902ZM170.427 30.3646L171.841 34.745L168.152 32.0526L170.427 30.3646Z" fill="#E2BF62" stroke="black" id="path46"/>
  <path fill-rule="evenodd" clip-rule="evenodd" d="M180.254 523.196C179.759 524.254 179.266 527.269 179.159 529.896C178.965 534.657 178.955 534.675 176.586 534.924C174.821 535.11 174.081 534.802 173.718 533.73C172.441 529.96 170.271 530.299 166.426 534.865C162.982 538.955 160.772 539 160.65 534.982C160.619 533.937 160.536 531.129 160.468 528.742C160.29 522.571 158.737 523.196 158.737 531.489C158.541 536.452 158.357 537.063 157.056 537.063C155.74 537.063 155.575 536.455 155.383 530.892C155.383 520.739 153.57 520.341 153.04 531.395C153.04 536.301 152.202 537.461 148.659 537.461C145.565 537.461 144.287 536.318 144.252 533.52C144.225 531.489 144.225 531.489 143.182 533.48C139.606 540.3 144.701 545.602 151.023 541.642C152.698 540.592 153.328 540.495 153.57 541.244C153.797 541.944 155.908 542.239 160.679 542.239C168.181 542.239 169.339 541.609 168.96 537.729C168.669 534.739 170.571 534.694 171.874 537.66C172.888 539.968 173.416 540.145 176.973 539.369C180.398 538.622 181.667 535.23 181.386 527.576C181.181 521.988 181.053 521.492 180.254 523.196ZM186.053 522.485C184.984 523.651 184.801 542.239 185.858 542.239C187.207 542.239 187.615 540.25 187.916 532.197C188.233 523.695 187.664 520.728 186.053 522.485ZM147.973 527.449C147.497 528.073 147.211 530.088 147.336 531.925C147.563 535.266 147.563 535.266 149.365 533.668C150.913 532.295 151.029 531.888 150.188 530.784C149.461 529.828 149.419 529.224 150.023 528.43C150.801 527.408 150.456 526.313 149.357 526.313C149.071 526.313 148.448 526.824 147.973 527.449Z" fill="black" id="path47"/>
</svg>